<svg xmlns="http://www.w3.org/2000/svg" xmlns:xlink="http://www.w3.org/1999/xlink" viewBox="0 0 31.88 50"><defs><style>.cls-1{isolation:isolate;}.cls-2{opacity:0.5;}.cls-109,.cls-2{mix-blend-mode:multiply;}.cls-3{fill:#dee9f4;}.cls-10,.cls-11,.cls-110,.cls-12,.cls-13,.cls-14,.cls-15,.cls-16,.cls-17,.cls-18,.cls-19,.cls-20,.cls-21,.cls-22,.cls-23,.cls-24,.cls-25,.cls-26,.cls-27,.cls-28,.cls-29,.cls-3,.cls-30,.cls-31,.cls-32,.cls-33,.cls-34,.cls-35,.cls-36,.cls-37,.cls-38,.cls-39,.cls-4,.cls-40,.cls-41,.cls-42,.cls-43,.cls-44,.cls-45,.cls-46,.cls-47,.cls-48,.cls-49,.cls-5,.cls-50,.cls-51,.cls-52,.cls-53,.cls-54,.cls-55,.cls-56,.cls-57,.cls-6,.cls-7,.cls-8,.cls-9{fill-rule:evenodd;}.cls-4{fill:#dde8f3;}.cls-5{fill:#dce7f2;}.cls-6{fill:#dbe6f1;}.cls-7{fill:#dae5ef;}.cls-8{fill:#d9e4ee;}.cls-9{fill:#d8e2ed;}.cls-10{fill:#d7e1ec;}.cls-11{fill:#d6e0eb;}.cls-12{fill:#d4dfea;}.cls-13{fill:#d3dee8;}.cls-14{fill:#d2dde7;}.cls-15{fill:#d1dce6;}.cls-16{fill:#d0dbe5;}.cls-17{fill:#cfdae4;}.cls-18{fill:#ced9e3;}.cls-19{fill:#cdd7e1;}.cls-20{fill:#ccd6e0;}.cls-21{fill:#cbd5df;}.cls-22{fill:#cad4de;}.cls-23{fill:#c9d3dd;}.cls-24{fill:#c8d2dc;}.cls-25{fill:#c7d1db;}.cls-26{fill:#c6d0d9;}.cls-27{fill:#c5cfd8;}.cls-28{fill:#c4ced7;}.cls-29{fill:#c2ccd6;}.cls-30{fill:#c1cbd5;}.cls-31{fill:#c0cad4;}.cls-32{fill:#bfc9d2;}.cls-33{fill:#bec8d1;}.cls-34{fill:#bdc7d0;}.cls-35{fill:#bcc6cf;}.cls-36{fill:#bbc5ce;}.cls-37{fill:#bac4cd;}.cls-38{fill:#b9c3cc;}.cls-39{fill:#b8c1ca;}.cls-40{fill:#b7c0c9;}.cls-41{fill:#b6bfc8;}.cls-42{fill:#b5bec7;}.cls-43{fill:#b4bdc6;}.cls-44{fill:#b3bcc5;}.cls-45{fill:#b2bbc3;}.cls-46{fill:#b0bac2;}.cls-47{fill:#afb9c1;}.cls-48{fill:#aeb8c0;}.cls-49{fill:#adb6bf;}.cls-50{fill:#acb5be;}.cls-51{fill:#abb4bc;}.cls-52{fill:#aab3bb;}.cls-53{fill:#a9b2ba;}.cls-54{fill:#a8b1b9;}.cls-111,.cls-55,.cls-58{fill:#1b87c9;}.cls-56{fill:#44aee2;}.cls-57{fill:#fff;}.cls-59{fill:#231f20;}.cls-60{fill:url(#Steel_1);}.cls-61{fill:url(#linear-gradient);}.cls-62{fill:url(#Steel_1-2);}.cls-63{fill:url(#radial-gradient);}.cls-64{fill:gray;}.cls-65{fill:#1a1a1a;}.cls-66{fill:url(#linear-gradient-2);}.cls-67{fill:url(#linear-gradient-3);}.cls-68{fill:url(#radial-gradient-2);}.cls-69{fill:url(#linear-gradient-4);}.cls-70{fill:url(#linear-gradient-5);}.cls-71{fill:#959595;}.cls-72{fill:url(#linear-gradient-6);}.cls-73{fill:url(#linear-gradient-7);}.cls-74{fill:url(#linear-gradient-8);}.cls-75{fill:url(#linear-gradient-9);}.cls-76{fill:url(#linear-gradient-10);}.cls-77{fill:url(#linear-gradient-11);}.cls-78{fill:url(#Steel_1-3);}.cls-79{fill:url(#linear-gradient-12);}.cls-80{fill:url(#Steel_1-4);}.cls-81{fill:url(#radial-gradient-3);}.cls-82{fill:url(#linear-gradient-13);}.cls-83{fill:url(#linear-gradient-14);}.cls-84{fill:url(#radial-gradient-4);}.cls-85{fill:url(#linear-gradient-15);}.cls-86{fill:url(#linear-gradient-16);}.cls-87{fill:url(#linear-gradient-17);}.cls-88{fill:url(#linear-gradient-18);}.cls-89{fill:url(#linear-gradient-19);}.cls-90{fill:url(#linear-gradient-20);}.cls-91{fill:url(#linear-gradient-21);}.cls-92{fill:url(#linear-gradient-22);}.cls-93{fill:url(#Steel_1-5);}.cls-94{fill:url(#linear-gradient-23);}.cls-95{fill:url(#Steel_1-6);}.cls-96{fill:url(#radial-gradient-5);}.cls-97{fill:url(#linear-gradient-24);}.cls-98{fill:url(#linear-gradient-25);}.cls-99{fill:url(#radial-gradient-6);}.cls-100{fill:url(#linear-gradient-26);}.cls-101{fill:url(#linear-gradient-27);}.cls-102{fill:url(#linear-gradient-28);}.cls-103{fill:url(#linear-gradient-29);}.cls-104{fill:url(#linear-gradient-30);}.cls-105{fill:url(#linear-gradient-31);}.cls-106{fill:url(#linear-gradient-32);}.cls-107{fill:url(#linear-gradient-33);}.cls-108{fill:url(#radial-gradient-7);}.cls-110{fill:#b3b2b3;}.cls-111{font-size:2.44px;font-family:Arista 2.0;}</style><linearGradient id="Steel_1" x1="279.12" y1="337.71" x2="292.41" y2="337.71" gradientUnits="userSpaceOnUse"><stop offset="0" stop-color="#e3dfdd"/><stop offset="0" stop-color="#dbd9d5"/><stop offset="0.04" stop-color="#cccbc8"/><stop offset="0.11" stop-color="#a5a8a7"/><stop offset="0.21" stop-color="#676f71"/><stop offset="0.26" stop-color="#465155"/><stop offset="0.37" stop-color="#868c8f"/><stop offset="0.46" stop-color="#b6b8ba"/><stop offset="0.53" stop-color="#d4d4d4"/><stop offset="0.57" stop-color="#dfdede"/><stop offset="0.63" stop-color="#d5d5d6"/><stop offset="0.73" stop-color="#bbbdc0"/><stop offset="0.86" stop-color="#91979d"/><stop offset="0.88" stop-color="#8a9197"/><stop offset="1" stop-color="#d0d1d2"/><stop offset="1" stop-color="#a5a8ab"/></linearGradient><linearGradient id="linear-gradient" x1="21.34" y1="22.34" x2="10.06" y2="36.38" gradientUnits="userSpaceOnUse"><stop offset="0" stop-color="#5c5c5c"/><stop offset="0.49" stop-color="#f5f5f5"/><stop offset="1" stop-color="#5c5c5c"/></linearGradient><linearGradient id="Steel_1-2" x1="281.71" y1="341.76" x2="289.81" y2="333.66" xlink:href="#Steel_1"/><radialGradient id="radial-gradient" cx="284.36" cy="336.9" r="5.44" gradientTransform="translate(-0.28 -0.1) scale(1.01 1)" gradientUnits="userSpaceOnUse"><stop offset="0" stop-color="#fff"/><stop offset="1"/></radialGradient><linearGradient id="linear-gradient-2" x1="285.76" y1="342.19" x2="285.76" y2="333.25" gradientUnits="userSpaceOnUse"><stop offset="0" stop-color="#a8a8a8"/><stop offset="0.17" stop-color="#7c7c7c"/><stop offset="0.36" stop-color="#505050"/><stop offset="0.54" stop-color="#2d2d2d"/><stop offset="0.71" stop-color="#141414"/><stop offset="0.87" stop-color="#050505"/><stop offset="1"/></linearGradient><linearGradient id="linear-gradient-3" x1="284.49" y1="338.99" x2="287.04" y2="336.44" gradientUnits="userSpaceOnUse"><stop offset="0" stop-color="#1a1919"/><stop offset="0.49" stop-color="#616161"/><stop offset="0.58" stop-color="#575757"/><stop offset="0.73" stop-color="#3d3d3d"/><stop offset="0.92" stop-color="#131313"/><stop offset="1"/></linearGradient><radialGradient id="radial-gradient-2" cx="284.31" cy="336.07" r="3.09" gradientTransform="translate(-270.12 -308.73) scale(1.01 1)" gradientUnits="userSpaceOnUse"><stop offset="0" stop-color="#fff"/><stop offset="0.03" stop-color="#e4e4e4"/><stop offset="0.1" stop-color="#b5b5b5"/><stop offset="0.17" stop-color="#898989"/><stop offset="0.24" stop-color="#646464"/><stop offset="0.32" stop-color="#454545"/><stop offset="0.41" stop-color="#2c2c2c"/><stop offset="0.5" stop-color="#181818"/><stop offset="0.61" stop-color="#0a0a0a"/><stop offset="0.75" stop-color="#020202"/><stop offset="1"/></radialGradient><linearGradient id="linear-gradient-4" x1="281.74" y1="332.95" x2="281.74" y2="333.42" gradientUnits="userSpaceOnUse"><stop offset="0" stop-color="gray"/><stop offset="1" stop-color="#f5f5f5"/></linearGradient><linearGradient id="linear-gradient-5" x1="11.9" y1="24.72" x2="11.9" y2="24.38" xlink:href="#linear-gradient-4"/><linearGradient id="linear-gradient-6" x1="289.78" y1="332.98" x2="289.78" y2="333.45" xlink:href="#linear-gradient-4"/><linearGradient id="linear-gradient-7" x1="19.94" y1="24.75" x2="19.94" y2="24.41" xlink:href="#linear-gradient-4"/><linearGradient id="linear-gradient-8" x1="289.79" y1="341.98" x2="289.79" y2="342.44" xlink:href="#linear-gradient-4"/><linearGradient id="linear-gradient-9" x1="19.95" y1="33.75" x2="19.95" y2="33.41" xlink:href="#linear-gradient-4"/><linearGradient id="linear-gradient-10" x1="281.74" y1="341.98" x2="281.74" y2="342.44" xlink:href="#linear-gradient-4"/><linearGradient id="linear-gradient-11" x1="11.9" y1="33.75" x2="11.9" y2="33.41" xlink:href="#linear-gradient-4"/><linearGradient id="Steel_1-3" x1="188.38" y1="441.51" x2="196.84" y2="441.51" gradientTransform="translate(-31.09 -33.71) rotate(-15.93)" xlink:href="#Steel_1"/><linearGradient id="linear-gradient-12" x1="197" y1="436.1" x2="187.92" y2="447.41" gradientTransform="translate(-31.09 -33.71) rotate(-15.93)" xlink:href="#linear-gradient"/><linearGradient id="Steel_1-4" x1="189.4" y1="444.77" x2="195.87" y2="438.3" gradientTransform="translate(-31.09 -33.71) rotate(-15.93)" xlink:href="#Steel_1"/><radialGradient id="radial-gradient-3" cx="190.64" cy="467.65" r="3.99" gradientTransform="matrix(0.97, -0.28, 0.25, 0.87, -25.38, -15.54)" xlink:href="#radial-gradient"/><linearGradient id="linear-gradient-13" x1="192.62" y1="444.81" x2="192.62" y2="438.22" gradientTransform="translate(-31.09 -33.71) rotate(-15.93)" xlink:href="#linear-gradient-2"/><linearGradient id="linear-gradient-14" x1="191.62" y1="442.53" x2="193.65" y2="440.49" gradientTransform="translate(-31.09 -33.71) rotate(-15.93)" xlink:href="#linear-gradient-3"/><radialGradient id="radial-gradient-4" cx="190.62" cy="466.97" r="2.37" gradientTransform="matrix(0.97, -0.28, 0.25, 0.87, -25.38, -15.54)" xlink:href="#radial-gradient-2"/><linearGradient id="linear-gradient-15" x1="191.27" y1="438" x2="191.27" y2="438.34" gradientTransform="translate(-31.09 -33.71) rotate(-15.93)" xlink:href="#linear-gradient-4"/><linearGradient id="linear-gradient-16" x1="191.27" y1="438.29" x2="191.27" y2="438.04" gradientTransform="translate(-31.09 -33.71) rotate(-15.93)" xlink:href="#linear-gradient-4"/><linearGradient id="linear-gradient-17" x1="196" y1="438.02" x2="196" y2="438.37" gradientTransform="translate(-31.09 -33.71) rotate(-15.93)" xlink:href="#linear-gradient-4"/><linearGradient id="linear-gradient-18" x1="196" y1="438.32" x2="196" y2="438.07" gradientTransform="translate(-31.09 -33.71) rotate(-15.93)" xlink:href="#linear-gradient-4"/><linearGradient id="linear-gradient-19" x1="194.07" y1="444.66" x2="194.07" y2="445" gradientTransform="translate(-31.09 -33.71) rotate(-15.93)" xlink:href="#linear-gradient-4"/><linearGradient id="linear-gradient-20" x1="194.07" y1="444.95" x2="194.07" y2="444.7" gradientTransform="translate(-31.09 -33.71) rotate(-15.93)" xlink:href="#linear-gradient-4"/><linearGradient id="linear-gradient-21" x1="189.2" y1="444.65" x2="189.2" y2="445" gradientTransform="translate(-31.09 -33.71) rotate(-15.93)" xlink:href="#linear-gradient-4"/><linearGradient id="linear-gradient-22" x1="189.2" y1="444.95" x2="189.2" y2="444.7" gradientTransform="translate(-31.09 -33.71) rotate(-15.93)" xlink:href="#linear-gradient-4"/><linearGradient id="Steel_1-5" x1="-53.56" y1="372.5" x2="-45.1" y2="372.5" gradientTransform="matrix(-0.96, -0.27, -0.27, 0.96, 351.07, -33.71)" xlink:href="#Steel_1"/><linearGradient id="linear-gradient-23" x1="-44.94" y1="367.09" x2="-54.02" y2="378.4" gradientTransform="matrix(-0.96, -0.27, -0.27, 0.96, 351.07, -33.71)" xlink:href="#linear-gradient"/><linearGradient id="Steel_1-6" x1="-52.54" y1="375.76" x2="-46.07" y2="369.29" gradientTransform="matrix(-0.96, -0.27, -0.27, 0.96, 351.07, -33.71)" xlink:href="#Steel_1"/><radialGradient id="radial-gradient-5" cx="-48.79" cy="391.81" r="3.99" gradientTransform="matrix(-0.97, -0.28, -0.25, 0.87, 346.49, -15.54)" xlink:href="#radial-gradient"/><linearGradient id="linear-gradient-24" x1="-49.32" y1="375.8" x2="-49.32" y2="369.21" gradientTransform="matrix(-0.96, -0.27, -0.27, 0.96, 351.07, -33.71)" xlink:href="#linear-gradient-2"/><linearGradient id="linear-gradient-25" x1="-50.32" y1="373.52" x2="-48.29" y2="371.48" gradientTransform="matrix(-0.96, -0.27, -0.27, 0.96, 351.07, -33.71)" xlink:href="#linear-gradient-3"/><radialGradient id="radial-gradient-6" cx="-48.81" cy="391.13" r="2.37" gradientTransform="matrix(-0.97, -0.28, -0.25, 0.87, 346.49, -15.54)" xlink:href="#radial-gradient-2"/><linearGradient id="linear-gradient-26" x1="-50.66" y1="368.99" x2="-50.66" y2="369.33" gradientTransform="matrix(-0.96, -0.27, -0.27, 0.96, 351.07, -33.71)" xlink:href="#linear-gradient-4"/><linearGradient id="linear-gradient-27" x1="-50.66" y1="369.28" x2="-50.66" y2="369.03" gradientTransform="matrix(-0.96, -0.27, -0.27, 0.96, 351.07, -33.71)" xlink:href="#linear-gradient-4"/><linearGradient id="linear-gradient-28" x1="-45.94" y1="369.01" x2="-45.94" y2="369.36" gradientTransform="matrix(-0.96, -0.27, -0.27, 0.96, 351.07, -33.71)" xlink:href="#linear-gradient-4"/><linearGradient id="linear-gradient-29" x1="-45.94" y1="369.31" x2="-45.94" y2="369.06" gradientTransform="matrix(-0.96, -0.27, -0.27, 0.96, 351.07, -33.71)" xlink:href="#linear-gradient-4"/><linearGradient id="linear-gradient-30" x1="-47.87" y1="375.64" x2="-47.87" y2="375.99" gradientTransform="matrix(-0.96, -0.27, -0.27, 0.96, 351.07, -33.71)" xlink:href="#linear-gradient-4"/><linearGradient id="linear-gradient-31" x1="-47.87" y1="375.94" x2="-47.87" y2="375.69" gradientTransform="matrix(-0.96, -0.27, -0.27, 0.96, 351.07, -33.71)" xlink:href="#linear-gradient-4"/><linearGradient id="linear-gradient-32" x1="-52.73" y1="375.64" x2="-52.73" y2="375.99" gradientTransform="matrix(-0.96, -0.27, -0.27, 0.96, 351.07, -33.71)" xlink:href="#linear-gradient-4"/><linearGradient id="linear-gradient-33" x1="-52.73" y1="375.94" x2="-52.73" y2="375.69" gradientTransform="matrix(-0.96, -0.27, -0.27, 0.96, 351.07, -33.71)" xlink:href="#linear-gradient-4"/><radialGradient id="radial-gradient-7" cx="278.25" cy="330.22" r="29.17" gradientUnits="userSpaceOnUse"><stop offset="0" stop-color="#85d1f5"/><stop offset="0.32" stop-color="#2e98d4"/><stop offset="0.63" stop-color="#00589b"/><stop offset="1" stop-color="#2c3179"/></radialGradient></defs><title>PIN_Map_Jukebox 5D-Official</title><g class="cls-1"><g id="Layer_1" data-name="Layer 1"><g class="cls-2"><path class="cls-3" d="M282.31,351.36c4.23-.12,8.32,1.42,9.14,3.42s-1.94,3.73-6.17,3.85-8.32-1.42-9.14-3.42S278.09,351.47,282.31,351.36Z" transform="translate(-269.84 -308.63)"/><path class="cls-4" d="M282.38,351.44c4.17-.11,8.2,1.4,9,3.37s-1.93,3.67-6.1,3.78-8.2-1.4-9-3.37S278.21,351.55,282.38,351.44Z" transform="translate(-269.84 -308.63)"/><path class="cls-5" d="M282.45,351.52c4.12-.11,8.09,1.38,8.88,3.32s-1.91,3.61-6,3.72-8.09-1.38-8.88-3.32S278.33,351.63,282.45,351.52Z" transform="translate(-269.84 -308.63)"/><path class="cls-6" d="M282.52,351.61c4.06-.11,8,1.36,8.75,3.27s-1.89,3.55-6,3.66-8-1.36-8.75-3.27S278.46,351.72,282.52,351.61Z" transform="translate(-269.84 -308.63)"/><path class="cls-7" d="M282.58,351.69c4-.1,7.86,1.34,8.62,3.22s-1.87,3.49-5.88,3.59-7.86-1.34-8.62-3.22S278.58,351.8,282.58,351.69Z" transform="translate(-269.84 -308.63)"/><path class="cls-8" d="M282.65,351.78c3.95-.1,7.75,1.32,8.49,3.17s-1.86,3.43-5.8,3.53-7.75-1.32-8.49-3.17S278.7,351.88,282.65,351.78Z" transform="translate(-269.84 -308.63)"/><path class="cls-9" d="M282.72,351.86c3.89-.1,7.63,1.3,8.36,3.11s-1.84,3.37-5.73,3.46-7.63-1.3-8.36-3.11S278.83,352,282.72,351.86Z" transform="translate(-269.84 -308.63)"/><path class="cls-10" d="M282.79,351.94c3.83-.09,7.52,1.28,8.23,3.06s-1.82,3.31-5.66,3.4-7.52-1.28-8.23-3.06S279,352,282.79,351.94Z" transform="translate(-269.84 -308.63)"/><path class="cls-11" d="M282.85,352c3.78-.09,7.4,1.26,8.1,3s-1.81,3.25-5.58,3.34-7.4-1.26-8.1-3S279.07,352.12,282.85,352Z" transform="translate(-269.84 -308.63)"/><path class="cls-12" d="M282.92,352.11c3.72-.09,7.29,1.24,8,3s-1.79,3.19-5.51,3.27-7.29-1.24-8-3S279.2,352.2,282.92,352.11Z" transform="translate(-269.84 -308.63)"/><path class="cls-13" d="M283,352.2c3.67-.08,7.17,1.22,7.84,2.91s-1.77,3.13-5.44,3.21-7.17-1.22-7.84-2.91S279.32,352.28,283,352.2Z" transform="translate(-269.84 -308.63)"/><path class="cls-14" d="M283.05,352.28c3.61-.08,7.06,1.2,7.7,2.86s-1.76,3.07-5.36,3.14-7.06-1.2-7.7-2.86S279.45,352.36,283.05,352.28Z" transform="translate(-269.84 -308.63)"/><path class="cls-15" d="M283.12,352.37c3.55-.08,6.94,1.18,7.57,2.8s-1.74,3-5.29,3.08-6.94-1.18-7.57-2.8S279.57,352.44,283.12,352.37Z" transform="translate(-269.84 -308.63)"/><path class="cls-16" d="M283.19,352.45c3.5-.07,6.83,1.16,7.44,2.75s-1.72,2.94-5.22,3-6.83-1.16-7.44-2.75S279.69,352.52,283.19,352.45Z" transform="translate(-269.84 -308.63)"/><path class="cls-17" d="M283.26,352.53c3.44-.07,6.71,1.14,7.31,2.7s-1.7,2.88-5.14,3-6.72-1.14-7.31-2.7S279.82,352.6,283.26,352.53Z" transform="translate(-269.84 -308.63)"/><path class="cls-18" d="M283.32,352.62c3.38-.07,6.6,1.12,7.18,2.65s-1.69,2.82-5.07,2.89-6.6-1.12-7.18-2.65S279.94,352.68,283.32,352.62Z" transform="translate(-269.84 -308.63)"/><path class="cls-19" d="M283.39,352.7c3.33-.06,6.49,1.1,7.05,2.6s-1.67,2.76-5,2.83-6.49-1.1-7.05-2.6S280.06,352.77,283.39,352.7Z" transform="translate(-269.84 -308.63)"/><path class="cls-20" d="M283.46,352.79c3.27-.06,6.37,1.08,6.92,2.55s-1.65,2.7-4.92,2.76-6.37-1.08-6.92-2.55S280.19,352.85,283.46,352.79Z" transform="translate(-269.84 -308.63)"/><path class="cls-21" d="M283.53,352.87c3.22-.06,6.26,1.06,6.79,2.5s-1.64,2.64-4.85,2.7-6.26-1.06-6.79-2.5S280.31,352.93,283.53,352.87Z" transform="translate(-269.84 -308.63)"/><path class="cls-22" d="M283.59,353c3.16-.05,6.14,1,6.66,2.44s-1.62,2.58-4.78,2.63-6.14-1-6.66-2.44S280.43,353,283.59,353Z" transform="translate(-269.84 -308.63)"/><path class="cls-23" d="M283.66,353c3.1,0,6,1,6.53,2.39s-1.6,2.52-4.71,2.57-6-1-6.53-2.39S280.56,353.09,283.66,353Z" transform="translate(-269.84 -308.63)"/><path class="cls-24" d="M283.73,353.12c3,0,5.91,1,6.4,2.34s-1.59,2.46-4.63,2.51-5.91-1-6.4-2.34S280.68,353.17,283.73,353.12Z" transform="translate(-269.84 -308.63)"/><path class="cls-25" d="M283.8,353.21c3,0,5.8,1,6.27,2.29s-1.57,2.4-4.56,2.44-5.8-1-6.27-2.29S280.81,353.25,283.8,353.21Z" transform="translate(-269.84 -308.63)"/><path class="cls-26" d="M283.86,353.29c2.93,0,5.68,1,6.14,2.24s-1.55,2.34-4.49,2.38-5.68-1-6.14-2.24S280.93,353.33,283.86,353.29Z" transform="translate(-269.84 -308.63)"/><path class="cls-27" d="M283.93,353.38c2.88,0,5.57.94,6,2.19s-1.53,2.28-4.41,2.32-5.57-.94-6-2.19S281.05,353.41,283.93,353.38Z" transform="translate(-269.84 -308.63)"/><path class="cls-28" d="M284,353.46c2.82,0,5.46.92,5.88,2.14s-1.52,2.22-4.34,2.25-5.46-.92-5.88-2.14S281.18,353.49,284,353.46Z" transform="translate(-269.84 -308.63)"/><path class="cls-29" d="M284.07,353.54c2.77,0,5.34.9,5.75,2.08s-1.5,2.16-4.27,2.19-5.34-.9-5.75-2.08S281.3,353.57,284.07,353.54Z" transform="translate(-269.84 -308.63)"/><path class="cls-30" d="M284.13,353.63c2.71,0,5.23.88,5.62,2s-1.48,2.1-4.19,2.12-5.23-.88-5.62-2S281.42,353.65,284.13,353.63Z" transform="translate(-269.84 -308.63)"/><path class="cls-31" d="M284.2,353.71c2.65,0,5.11.86,5.49,2s-1.47,2-4.12,2.06-5.11-.86-5.49-2S281.55,353.73,284.2,353.71Z" transform="translate(-269.84 -308.63)"/><path class="cls-32" d="M284.27,353.8c2.6,0,5,.85,5.36,1.93s-1.45,2-4,2-5-.85-5.36-1.93S281.67,353.82,284.27,353.8Z" transform="translate(-269.84 -308.63)"/><path class="cls-33" d="M284.34,353.88c2.54,0,4.88.83,5.23,1.88s-1.43,1.92-4,1.93-4.88-.83-5.23-1.88S281.8,353.9,284.34,353.88Z" transform="translate(-269.84 -308.63)"/><path class="cls-34" d="M284.4,354c2.48,0,4.77.81,5.1,1.83s-1.41,1.86-3.9,1.87-4.77-.81-5.1-1.83S281.92,354,284.4,354Z" transform="translate(-269.84 -308.63)"/><path class="cls-35" d="M284.47,354c2.43,0,4.65.79,5,1.77s-1.4,1.8-3.83,1.8-4.65-.79-5-1.77S282,354.06,284.47,354Z" transform="translate(-269.84 -308.63)"/><path class="cls-36" d="M284.54,354.13c2.37,0,4.54.77,4.84,1.72s-1.38,1.74-3.75,1.74-4.54-.77-4.84-1.72S282.17,354.14,284.54,354.13Z" transform="translate(-269.84 -308.63)"/><path class="cls-37" d="M284.61,354.22c2.32,0,4.42.75,4.71,1.67s-1.36,1.68-3.68,1.68-4.42-.75-4.71-1.67S282.29,354.22,284.61,354.22Z" transform="translate(-269.84 -308.63)"/><path class="cls-38" d="M284.67,354.3c2.26,0,4.31.73,4.58,1.62s-1.35,1.61-3.61,1.61-4.31-.73-4.58-1.62S282.41,354.3,284.67,354.3Z" transform="translate(-269.84 -308.63)"/><path class="cls-39" d="M284.74,354.39c2.2,0,4.19.71,4.45,1.57s-1.33,1.55-3.53,1.55-4.2-.71-4.45-1.57S282.54,354.38,284.74,354.39Z" transform="translate(-269.84 -308.63)"/><path class="cls-40" d="M284.81,354.47c2.15,0,4.08.69,4.32,1.52s-1.31,1.49-3.46,1.49-4.08-.69-4.32-1.52S282.66,354.46,284.81,354.47Z" transform="translate(-269.84 -308.63)"/><path class="cls-41" d="M284.88,354.55c2.09,0,4,.67,4.19,1.47s-1.3,1.43-3.39,1.42-4-.67-4.19-1.47S282.78,354.54,284.88,354.55Z" transform="translate(-269.84 -308.63)"/><path class="cls-42" d="M284.94,354.64c2,0,3.85.65,4.06,1.41s-1.28,1.37-3.31,1.36-3.85-.65-4.06-1.41S282.91,354.62,284.94,354.64Z" transform="translate(-269.84 -308.63)"/><path class="cls-43" d="M285,354.72c2,0,3.74.63,3.93,1.36s-1.26,1.31-3.24,1.29-3.74-.63-3.93-1.36S283,354.7,285,354.72Z" transform="translate(-269.84 -308.63)"/><path class="cls-44" d="M285.08,354.81c1.92,0,3.62.61,3.8,1.31s-1.24,1.25-3.17,1.23-3.62-.61-3.8-1.31S283.16,354.78,285.08,354.81Z" transform="translate(-269.84 -308.63)"/><path class="cls-45" d="M285.15,354.89c1.87,0,3.51.59,3.67,1.26s-1.23,1.19-3.09,1.17-3.51-.59-3.67-1.26S283.28,354.86,285.15,354.89Z" transform="translate(-269.84 -308.63)"/><path class="cls-46" d="M285.21,355c1.81,0,3.39.57,3.53,1.21s-1.21,1.13-3,1.1-3.39-.57-3.54-1.21S283.4,354.95,285.21,355Z" transform="translate(-269.84 -308.63)"/><path class="cls-47" d="M285.28,355.06c1.75,0,3.28.55,3.4,1.16s-1.19,1.07-2.95,1-3.28-.55-3.4-1.16S283.53,355,285.28,355.06Z" transform="translate(-269.84 -308.63)"/><path class="cls-48" d="M285.35,355.14c1.7,0,3.16.53,3.27,1.1s-1.18,1-2.87,1-3.16-.53-3.27-1.1S283.65,355.11,285.35,355.14Z" transform="translate(-269.84 -308.63)"/><path class="cls-49" d="M285.42,355.23c1.64,0,3,.51,3.14,1.05s-1.16,1-2.8.91-3-.51-3.14-1.05S283.77,355.19,285.42,355.23Z" transform="translate(-269.84 -308.63)"/><path class="cls-50" d="M285.48,355.31c1.59,0,2.93.49,3,1s-1.14.89-2.73,0.85-2.93-.49-3-1S283.9,355.27,285.48,355.31Z" transform="translate(-269.84 -308.63)"/><path class="cls-51" d="M285.55,355.4c1.53,0,2.82.47,2.88,1s-1.13.83-2.65,0.78-2.82-.47-2.88-1S284,355.35,285.55,355.4Z" transform="translate(-269.84 -308.63)"/><path class="cls-52" d="M285.62,355.48c1.47,0,2.71.45,2.75,0.9s-1.11.77-2.58,0.72-2.71-.45-2.75-0.9S284.14,355.43,285.62,355.48Z" transform="translate(-269.84 -308.63)"/><path class="cls-53" d="M285.69,355.56c1.42,0.05,2.59.43,2.62,0.85s-1.09.71-2.51,0.66-2.59-.43-2.62-0.85S284.27,355.51,285.69,355.56Z" transform="translate(-269.84 -308.63)"/><path class="cls-54" d="M285.75,355.65c1.36,0.06,2.48.41,2.49,0.8s-1.07.65-2.43,0.59-2.48-.41-2.49-0.8S284.39,355.59,285.75,355.65Z" transform="translate(-269.84 -308.63)"/></g><path class="cls-55" d="M285.78,308.63a15.94,15.94,0,0,0-15.94,15.94,17.54,17.54,0,0,0,1.55,6.86l14.39,24.91,14.33-24.77a19.21,19.21,0,0,0,1.61-7A15.94,15.94,0,0,0,285.78,308.63Z" transform="translate(-269.84 -308.63)"/><path class="cls-56" d="M285.78,356.34l14.33-24.77a19.22,19.22,0,0,0,1.61-7,15.94,15.94,0,0,0-15.94-15.94v47.71Z" transform="translate(-269.84 -308.63)"/><path class="cls-57" d="M285.78,337.66a13.09,13.09,0,1,0-13.09-13.09A13.11,13.11,0,0,0,285.78,337.66Z" transform="translate(-269.84 -308.63)"/><g id="_Group_" data-name="&lt;Group&gt;"><path class="cls-58" d="M285.51,344.62a3.93,3.93,0,0,1-1.53-.22A7.12,7.12,0,0,0,285.51,344.62Z" transform="translate(-269.84 -308.63)"/><path class="cls-59" d="M278.13,341.07a5.3,5.3,0,0,1-2.79,2.14,3.48,3.48,0,0,1-.95.14,3,3,0,0,1-2.2-1,5,5,0,0,1-1.15-3.61,8.16,8.16,0,0,1,.22-1.65,8.41,8.41,0,0,1,1.05-2.51,5.38,5.38,0,0,1,2.93-2.44,3.3,3.3,0,0,1,.89-0.13,2.93,2.93,0,0,1,2.19,1,4.29,4.29,0,0,1,.94,1.68,7.1,7.1,0,0,1,13,.07,4.36,4.36,0,0,1,1-1.72,2.93,2.93,0,0,1,2.18-1,3.24,3.24,0,0,1,.89.13,5.39,5.39,0,0,1,2.93,2.44,8.41,8.41,0,0,1,.92,2,8.23,8.23,0,0,1,.36,2.15,5,5,0,0,1-1.14,3.61,3,3,0,0,1-2.21,1h0a3.48,3.48,0,0,1-.95-0.14,5.48,5.48,0,0,1-3-2.46l-0.06-.1a7.56,7.56,0,0,1-.58-1.17,6.94,6.94,0,0,1-1,2.07,7.11,7.11,0,0,1-5.83,3h-0.25a7.12,7.12,0,0,1-1.53-.22,7,7,0,0,1-3.15-1.78l-0.07-.07a7,7,0,0,1-1.79-3,7.91,7.91,0,0,1-.61,1.2Z" transform="translate(-269.84 -308.63)"/></g><path class="cls-60" d="M285.76,344.34a6.63,6.63,0,1,1,4.7-1.94,6.61,6.61,0,0,1-4.7,1.94h0Z" transform="translate(-269.84 -308.63)"/><ellipse class="cls-61" cx="15.92" cy="29.08" rx="6.38" ry="6.36"/><path class="cls-62" d="M285.76,343.44a5.72,5.72,0,1,1,5.74-5.72,5.74,5.74,0,0,1-5.74,5.72h0Z" transform="translate(-269.84 -308.63)"/><path class="cls-63" d="M285.76,343.17a5.46,5.46,0,1,1,5.48-5.46,5.47,5.47,0,0,1-5.48,5.46h0Z" transform="translate(-269.84 -308.63)"/><path class="cls-64" d="M285.76,342.53a4.82,4.82,0,1,1,4.84-4.82,4.84,4.84,0,0,1-4.84,4.82h0Z" transform="translate(-269.84 -308.63)"/><path class="cls-65" d="M285.76,342.43a4.72,4.72,0,1,1,4.73-4.72,4.73,4.73,0,0,1-4.73,4.72h0Z" transform="translate(-269.84 -308.63)"/><path class="cls-66" d="M285.76,342.16a4.45,4.45,0,1,1,4.47-4.45,4.46,4.46,0,0,1-4.47,4.45h0Z" transform="translate(-269.84 -308.63)"/><path class="cls-67" d="M285.76,339.51a1.8,1.8,0,1,1,1.81-1.8,1.81,1.81,0,0,1-1.81,1.8h0Z" transform="translate(-269.84 -308.63)"/><ellipse class="cls-68" cx="15.94" cy="29.1" rx="1.54" ry="1.54"/><path class="cls-69" d="M281.74,333.42a0.23,0.23,0,1,1,.23-0.23,0.23,0.23,0,0,1-.23.23h0Z" transform="translate(-269.84 -308.63)"/><circle class="cls-70" cx="11.9" cy="24.55" r="0.17"/><path class="cls-71" d="M281.74,333h0v0.34h0V333h0Z" transform="translate(-269.84 -308.63)"/><path class="cls-71" d="M281.91,333.19h0Z" transform="translate(-269.84 -308.63)"/><path class="cls-72" d="M289.78,333.45a0.23,0.23,0,1,1,.23-0.23,0.23,0.23,0,0,1-.23.23h0Z" transform="translate(-269.84 -308.63)"/><circle class="cls-73" cx="19.94" cy="24.58" r="0.17"/><path class="cls-71" d="M289.78,333h0v0.34h0V333h0Z" transform="translate(-269.84 -308.63)"/><path class="cls-71" d="M289.95,333.22h0Z" transform="translate(-269.84 -308.63)"/><path class="cls-74" d="M289.79,342.44a0.23,0.23,0,1,1,.23-0.23,0.23,0.23,0,0,1-.23.23h0Z" transform="translate(-269.84 -308.63)"/><circle class="cls-75" cx="19.95" cy="33.58" r="0.17"/><path class="cls-71" d="M289.79,342h0v0.34h0V342h0Z" transform="translate(-269.84 -308.63)"/><path class="cls-71" d="M290,342.21h0Z" transform="translate(-269.84 -308.63)"/><path class="cls-76" d="M281.74,342.44a0.23,0.23,0,1,1,.23-0.23,0.23,0.23,0,0,1-.23.23h0Z" transform="translate(-269.84 -308.63)"/><circle class="cls-77" cx="11.9" cy="33.58" r="0.17"/><path class="cls-71" d="M281.74,342h0v0.34h0V342h0Z" transform="translate(-269.84 -308.63)"/><path class="cls-71" d="M281.91,342.21h0Z" transform="translate(-269.84 -308.63)"/><path class="cls-78" d="M275.22,343.08a2.58,2.58,0,0,1-2.71-.72,4.61,4.61,0,0,1-1-3.3,7.93,7.93,0,0,1,1.21-3.94,5,5,0,0,1,2.68-2.25,2.51,2.51,0,0,1,2.64.74,4.76,4.76,0,0,1,1.1,3.28,7.47,7.47,0,0,1-1.13,3.91,5.05,5.05,0,0,1-2.76,2.27h0Z" transform="translate(-269.84 -308.63)"/><path class="cls-79" d="M279,336.94c0,2.69-1.67,5.35-3.73,5.94s-3.67-1.14-3.59-3.86,1.75-5.37,3.73-5.94S279,334.25,279,336.94Z" transform="translate(-269.84 -308.63)"/><path class="cls-80" d="M275.23,342.39c-1.85.53-3.3-1-3.23-3.47s1.57-4.84,3.36-5.34,3.23,1,3.23,3.47-1.51,4.82-3.36,5.35h0Z" transform="translate(-269.84 -308.63)"/><path class="cls-81" d="M275.24,342.19c-1.76.5-3.14-1-3.08-3.31s1.5-4.61,3.2-5.1,3.09,1,3.08,3.31-1.44,4.6-3.2,5.1h0Z" transform="translate(-269.84 -308.63)"/><path class="cls-64" d="M275.24,341.69c-1.55.44-2.77-.87-2.72-2.92s1.32-4.07,2.83-4.5,2.73,0.88,2.72,2.92-1.28,4.06-2.83,4.5h0Z" transform="translate(-269.84 -308.63)"/><path class="cls-65" d="M275.25,341.61c-1.52.43-2.71-.85-2.66-2.86s1.29-4,2.77-4.4,2.67,0.86,2.66,2.86-1.25,4-2.77,4.4h0Z" transform="translate(-269.84 -308.63)"/><path class="cls-82" d="M275.25,341.41c-1.43.41-2.56-.8-2.51-2.7s1.22-3.76,2.61-4.16,2.52,0.81,2.51,2.7-1.18,3.75-2.61,4.16h0Z" transform="translate(-269.84 -308.63)"/><path class="cls-83" d="M275.28,339.37c-0.57.16-1-.33-1-1.09a1.8,1.8,0,0,1,1.06-1.68c0.57-.16,1,0.33,1,1.09a1.79,1.79,0,0,1-1.06,1.68h0Z" transform="translate(-269.84 -308.63)"/><path class="cls-84" d="M275.33,336.81a1.54,1.54,0,0,0-.9,1.44c0,0.65.38,1.07,0.87,0.93a1.52,1.52,0,0,0,.9-1.44C276.2,337.09,275.81,336.67,275.33,336.81Z" transform="translate(-269.84 -308.63)"/><path class="cls-85" d="M273.07,335.32c-0.07,0-.13,0-0.13-0.14a0.23,0.23,0,0,1,.14-0.22c0.07,0,.13,0,0.13.14a0.23,0.23,0,0,1-.14.22h0Z" transform="translate(-269.84 -308.63)"/><path class="cls-86" d="M273.17,335.12a0.17,0.17,0,0,1-.1.16c-0.05,0-.09,0-0.09-0.1a0.17,0.17,0,0,1,.1-0.16C273.13,335,273.17,335,273.17,335.12Z" transform="translate(-269.84 -308.63)"/><polygon class="cls-71" points="3.24 26.38 3.23 26.38 3.23 26.64 3.23 26.64 3.24 26.64 3.25 26.38 3.24 26.38"/><polygon class="cls-71" points="3.33 26.48 3.33 26.47 3.14 26.53 3.14 26.54 3.14 26.55 3.33 26.49 3.33 26.48"/><path class="cls-87" d="M277.62,334.05c-0.07,0-.13,0-0.13-0.14a0.23,0.23,0,0,1,.13-0.22c0.07,0,.13,0,0.13.14a0.23,0.23,0,0,1-.13.22h0Z" transform="translate(-269.84 -308.63)"/><path class="cls-88" d="M277.72,333.85a0.17,0.17,0,0,1-.1.16c-0.05,0-.1,0-0.1-0.1a0.17,0.17,0,0,1,.1-0.16C277.68,333.73,277.72,333.77,277.72,333.85Z" transform="translate(-269.84 -308.63)"/><polygon class="cls-71" points="7.79 25.11 7.78 25.11 7.78 25.37 7.79 25.37 7.79 25.37 7.79 25.11 7.79 25.11"/><polygon class="cls-71" points="7.88 25.21 7.88 25.2 7.69 25.26 7.69 25.27 7.69 25.28 7.88 25.22 7.88 25.21"/><path class="cls-89" d="M277.59,341a0.12,0.12,0,0,1-.13-0.14,0.23,0.23,0,0,1,.14-0.22,0.12,0.12,0,0,1,.13.14,0.23,0.23,0,0,1-.14.22h0Z" transform="translate(-269.84 -308.63)"/><path class="cls-90" d="M277.69,340.75a0.17,0.17,0,0,1-.1.16,0.08,0.08,0,0,1-.1-0.1,0.17,0.17,0,0,1,.1-0.16A0.08,0.08,0,0,1,277.69,340.75Z" transform="translate(-269.84 -308.63)"/><polygon class="cls-71" points="7.75 32.02 7.75 32.02 7.74 32.28 7.75 32.28 7.76 32.27 7.76 32.02 7.75 32.02"/><polygon class="cls-71" points="7.85 32.12 7.85 32.11 7.65 32.16 7.65 32.17 7.65 32.18 7.85 32.13 7.85 32.12"/><path class="cls-91" d="M272.91,342.29c-0.08,0-.13,0-0.13-0.14a0.24,0.24,0,0,1,.14-0.22c0.07,0,.13,0,0.13.14a0.24,0.24,0,0,1-.14.22h0Z" transform="translate(-269.84 -308.63)"/><path class="cls-92" d="M273,342.08a0.17,0.17,0,0,1-.1.16c-0.05,0-.1,0-0.1-0.1a0.17,0.17,0,0,1,.1-0.16C273,342,273,342,273,342.08Z" transform="translate(-269.84 -308.63)"/><polygon class="cls-71" points="3.08 33.35 3.07 33.35 3.06 33.61 3.07 33.61 3.07 33.61 3.08 33.35 3.08 33.35"/><polygon class="cls-71" points="3.17 33.45 3.17 33.44 2.97 33.5 2.97 33.51 2.97 33.52 3.17 33.46 3.17 33.45"/><path class="cls-93" d="M296.34,343.11a2.59,2.59,0,0,0,2.71-.72,4.61,4.61,0,0,0,1-3.3,7.93,7.93,0,0,0-1.21-3.94,5,5,0,0,0-2.68-2.25,2.51,2.51,0,0,0-2.64.74,4.76,4.76,0,0,0-1.1,3.28,7.46,7.46,0,0,0,1.13,3.91,5,5,0,0,0,2.76,2.27h0Z" transform="translate(-269.84 -308.63)"/><path class="cls-94" d="M292.6,337c0,2.69,1.67,5.35,3.73,5.94s3.67-1.14,3.59-3.86-1.75-5.37-3.73-5.94S292.6,334.27,292.6,337Z" transform="translate(-269.84 -308.63)"/><path class="cls-95" d="M296.33,342.42c1.85,0.53,3.3-1,3.23-3.47s-1.57-4.84-3.36-5.35-3.23,1-3.23,3.47,1.51,4.82,3.36,5.34h0Z" transform="translate(-269.84 -308.63)"/><path class="cls-96" d="M296.33,342.21c1.76,0.5,3.14-1,3.08-3.31s-1.5-4.61-3.21-5.1-3.09,1-3.08,3.31,1.44,4.6,3.21,5.1h0Z" transform="translate(-269.84 -308.63)"/><path class="cls-64" d="M296.32,341.72c1.55,0.44,2.77-.87,2.72-2.92s-1.32-4.07-2.83-4.5-2.73.88-2.72,2.92,1.28,4.06,2.83,4.5h0Z" transform="translate(-269.84 -308.63)"/><path class="cls-65" d="M296.32,341.64c1.52,0.43,2.71-.85,2.66-2.86s-1.29-4-2.77-4.4-2.67.86-2.66,2.86,1.25,4,2.77,4.4h0Z" transform="translate(-269.84 -308.63)"/><path class="cls-97" d="M296.31,341.44c1.43,0.41,2.56-.8,2.51-2.7s-1.22-3.76-2.61-4.16-2.52.81-2.51,2.7,1.18,3.75,2.61,4.16h0Z" transform="translate(-269.84 -308.63)"/><path class="cls-98" d="M296.28,339.4c0.57,0.16,1-.33,1-1.09a1.8,1.8,0,0,0-1.06-1.68c-0.57-.16-1,0.33-1,1.09a1.79,1.79,0,0,0,1.06,1.68h0Z" transform="translate(-269.84 -308.63)"/><path class="cls-99" d="M296.24,336.84a1.54,1.54,0,0,1,.9,1.44c0,0.65-.38,1.07-0.87.93a1.52,1.52,0,0,1-.9-1.44C295.36,337.11,295.75,336.7,296.24,336.84Z" transform="translate(-269.84 -308.63)"/><path class="cls-100" d="M298.49,335.35c0.07,0,.13,0,0.13-0.14a0.24,0.24,0,0,0-.14-0.22c-0.07,0-.13,0-0.13.14a0.23,0.23,0,0,0,.14.22h0Z" transform="translate(-269.84 -308.63)"/><path class="cls-101" d="M298.39,335.14a0.17,0.17,0,0,0,.1.16c0.05,0,.09,0,0.09-0.1a0.17,0.17,0,0,0-.1-0.16C298.43,335,298.39,335.07,298.39,335.14Z" transform="translate(-269.84 -308.63)"/><polygon class="cls-71" points="28.64 26.41 28.65 26.41 28.66 26.67 28.65 26.67 28.64 26.67 28.64 26.41 28.64 26.41"/><polygon class="cls-71" points="28.55 26.51 28.55 26.5 28.74 26.55 28.74 26.57 28.74 26.57 28.55 26.52 28.55 26.51"/><path class="cls-102" d="M293.94,334.08c0.07,0,.13,0,0.13-0.14a0.23,0.23,0,0,0-.13-0.22c-0.07,0-.13,0-0.13.14a0.23,0.23,0,0,0,.13.22h0Z" transform="translate(-269.84 -308.63)"/><path class="cls-103" d="M293.84,333.87a0.17,0.17,0,0,0,.1.16c0.05,0,.1,0,0.1-0.1a0.17,0.17,0,0,0-.1-0.16C293.88,333.75,293.84,333.8,293.84,333.87Z" transform="translate(-269.84 -308.63)"/><polygon class="cls-71" points="24.1 25.14 24.11 25.14 24.11 25.4 24.1 25.4 24.09 25.4 24.09 25.14 24.1 25.14"/><polygon class="cls-71" points="24 25.24 24 25.23 24.19 25.29 24.2 25.3 24.19 25.3 24 25.25 24 25.24"/><path class="cls-104" d="M294,341a0.12,0.12,0,0,0,.13-0.14,0.23,0.23,0,0,0-.14-0.22,0.12,0.12,0,0,0-.13.14,0.23,0.23,0,0,0,.14.22h0Z" transform="translate(-269.84 -308.63)"/><path class="cls-105" d="M293.87,340.78a0.17,0.17,0,0,0,.1.16,0.08,0.08,0,0,0,.1-0.1,0.17,0.17,0,0,0-.1-0.16A0.08,0.08,0,0,0,293.87,340.78Z" transform="translate(-269.84 -308.63)"/><polygon class="cls-71" points="24.13 32.04 24.14 32.05 24.14 32.31 24.13 32.3 24.13 32.3 24.13 32.04 24.13 32.04"/><polygon class="cls-71" points="24.03 32.15 24.03 32.13 24.23 32.19 24.23 32.2 24.23 32.21 24.03 32.15 24.03 32.15"/><path class="cls-106" d="M298.66,342.32c0.08,0,.13,0,0.13-0.14a0.24,0.24,0,0,0-.14-0.22c-0.08,0-.13,0-0.13.14a0.24,0.24,0,0,0,.14.22h0Z" transform="translate(-269.84 -308.63)"/><path class="cls-107" d="M298.55,342.11a0.17,0.17,0,0,0,.1.16c0.05,0,.1,0,0.1-0.1a0.17,0.17,0,0,0-.1-0.16C298.59,342,298.55,342,298.55,342.11Z" transform="translate(-269.84 -308.63)"/><polygon class="cls-71" points="28.81 33.37 28.82 33.38 28.82 33.64 28.82 33.64 28.81 33.63 28.8 33.37 28.81 33.37"/><polygon class="cls-71" points="28.71 33.48 28.71 33.47 28.91 33.52 28.91 33.53 28.91 33.54 28.71 33.49 28.71 33.48"/><path class="cls-108" d="M289.71,329.26l-0.37,0-0.36,0-0.34,0-0.33,0-0.32,0-0.31,0h-3.78l-0.31,0-0.32,0-0.33,0-0.34,0-0.36,0-0.37,0-0.3-.05-0.29-.09L281,329l-0.27-.16-0.25-.19-0.23-.21L280,328.2l-0.19-.25a2.9,2.9,0,0,1-.16-0.27,2.63,2.63,0,0,1-.13-0.28,2.37,2.37,0,0,1-.09-0.29,2.15,2.15,0,0,1-.05-0.3l0-.37,0-.36,0-.34,0-.33,0-.32,0-.31v-0.3q0-.15,0-0.3t0-.29,0-.29,0-.29,0-.28,0-.28,0-.28,0-.29,0-.29,0-.29,0-.3V321l0-.31,0-.32,0-.33,0-.34,0-.36,0-.37a2.15,2.15,0,0,1,.05-0.3,2.37,2.37,0,0,1,.09-0.29,2.63,2.63,0,0,1,.13-0.28,2.91,2.91,0,0,1,.16-0.27l0.19-.25,0.21-.23,0.23-.21,0.25-.19,0.27-.16,0.28-.13,0.29-.09,0.3-.05,0.37,0,0.36,0,0.34,0,0.33,0,0.32,0,0.31,0h3.78l0.31,0,0.32,0,0.33,0,0.34,0,0.36,0,0.37,0,0.3,0.05,0.29,0.09,0.28,0.13,0.27,0.16,0.25,0.19,0.23,0.21,0.21,0.23,0.19,0.25a2.91,2.91,0,0,1,.16.27,2.63,2.63,0,0,1,.13.28,2.37,2.37,0,0,1,.09.29,2.15,2.15,0,0,1,.05.3l0,0.37,0,0.36,0,0.34,0,0.33,0,0.32,0,0.31v0.3q0,0.15,0,.3t0,0.29,0,0.29,0,0.29,0,0.28,0,0.28,0,0.28,0,0.29,0,0.29,0,0.29,0,0.3v0.3l0,0.31,0,0.32,0,0.33,0,0.34,0,0.36,0,0.37a2.15,2.15,0,0,1-.05.3,2.37,2.37,0,0,1-.09.29,2.63,2.63,0,0,1-.13.28,2.9,2.9,0,0,1-.16.27l-0.19.25-0.21.23-0.23.21-0.25.19-0.27.16-0.28.13-0.29.09Z" transform="translate(-269.84 -308.63)"/><g id="_Group_2" data-name="&lt;Group&gt;" class="cls-109"><path class="cls-110" d="M288.34,327a0.84,0.84,0,1,0-.19,0Zm-0.76-6.35q0.26-.47.56-1a11.58,11.58,0,0,1-2.72.77,13.13,13.13,0,0,1-2.15.17q0.25,0.34.47,0.67a12.51,12.51,0,0,0,1.51-.1A10.89,10.89,0,0,0,287.57,320.69ZM283,324.54l0.08,0h0.09a0.47,0.47,0,0,1,.45.33v0a0.47,0.47,0,0,1-.32.55h0a0.84,0.84,0,0,0,0,1.62l0.19,0a0.83,0.83,0,0,0,.56-0.22h0a1.37,1.37,0,0,0,.4-0.92,3.48,3.48,0,0,0-.12-1.27,6.31,6.31,0,0,0-.24-0.72,10.67,10.67,0,0,0-.87-1.68q-0.3-.48-0.67-1t-0.65-.85a0.47,0.47,0,0,1,.44-0.75,7,7,0,0,0,.81.06,12.18,12.18,0,0,0,2.12-.15,10.57,10.57,0,0,0,3-.93,6.24,6.24,0,0,0,1-.63,0.47,0.47,0,0,1,.67.63q-0.49.68-.9,1.33t-0.85,1.46a14.13,14.13,0,0,0-.61,1.31,7.71,7.71,0,0,0-.55,2.07,1.76,1.76,0,0,1,.84-0.35l0.24,0a1.78,1.78,0,1,1-1.3,3h0a2.76,2.76,0,0,1-.67-1.46,6.23,6.23,0,0,1,.36-3q0.18-.55.45-1.13a12,12,0,0,1-1.63.32c-0.38,0-.73.07-1,0.09a10.59,10.59,0,0,1,.68,1.4,5,5,0,0,1,.39,2.45,2.53,2.53,0,0,1-.42,1.12h0l-0.16.2,0,0h0a1.78,1.78,0,1,1-1.77-3h0Z" transform="translate(-269.84 -308.63)"/></g><g id="_Group_3" data-name="&lt;Group&gt;"><path class="cls-57" d="M288.13,326.93a0.84,0.84,0,1,0-.19,0Zm-0.76-6.35q0.2-.37.43-0.75a11.62,11.62,0,0,1-2.65.64,13.21,13.21,0,0,1-2.06.1h0l0.46,0.66a12.51,12.51,0,0,0,1.51-.1A10.89,10.89,0,0,0,287.37,320.57Zm-4.71-1-0.34,0-0.22,0a0.47,0.47,0,0,0-.34.85q0.31,0.39.59,0.77t0.67,1a10.67,10.67,0,0,1,.87,1.68,6.31,6.31,0,0,1,.24.72,3.48,3.48,0,0,1,.12,1.27,1.37,1.37,0,0,1-.4.92h0a0.83,0.83,0,0,1-.56.22l-0.19,0a0.84,0.84,0,0,1,0-1.62h0a0.47,0.47,0,0,0,.32-0.55v0a0.47,0.47,0,0,0-.45-0.33h-0.09l-0.08,0h0a1.78,1.78,0,1,0,1.77,3h0l0,0,0.16-.2h0a2.53,2.53,0,0,0,.42-1.12,5,5,0,0,0-.39-2.45,10.59,10.59,0,0,0-.68-1.4c0.32,0,.67,0,1-0.09a12,12,0,0,0,1.63-.32q-0.27.59-.45,1.13a6.23,6.23,0,0,0-.36,3,2.76,2.76,0,0,0,.67,1.46h0a1.78,1.78,0,1,0,1.3-3l-0.24,0a1.76,1.76,0,0,0-.84.35,7.71,7.71,0,0,1,.55-2.07,14.13,14.13,0,0,1,.61-1.31q0.37-.7.85-1.46,0.26-.41.55-0.83l0.19-.28,0.16-.23a0.47,0.47,0,0,0-.67-0.63,6.24,6.24,0,0,1-1,.63,10.57,10.57,0,0,1-3,.93,12.18,12.18,0,0,1-2.12.15h-0.29Z" transform="translate(-269.84 -308.63)"/></g><text class="cls-111" transform="translate(5.41 17.5) rotate(-94.92)">o</text><text class="cls-111" transform="translate(5.36 14.85) rotate(-81.63)">f</text><text class="cls-111" transform="translate(5.82 12.66) rotate(-69.47)">f</text><text class="cls-111" transform="matrix(0.53, -0.85, 0.85, 0.53, 6.79, 10.53)">i</text><text class="cls-111" transform="matrix(0.69, -0.72, 0.72, 0.69, 7.87, 9.01)">c</text><text class="cls-111" transform="translate(9.73 7.32) rotate(-34.59)">i</text><text class="cls-111" transform="translate(11.32 6.35) rotate(-22.28)">a</text><text class="cls-111" transform="translate(13.87 5.51) rotate(-9.37)">l</text><text class="cls-111" transform="matrix(1, 0.03, -0.03, 1, 15.94, 5.31)"> </text><text class="cls-111" transform="matrix(0.97, 0.24, -0.24, 0.97, 17.84, 5.46)">p</text><text class="cls-111" transform="translate(20.37 6.26) rotate(28.22)">a</text><text class="cls-111" transform="matrix(0.75, 0.66, -0.66, 0.75, 22.65, 7.7)">r</text><text class="cls-111" transform="translate(24.21 9.25) rotate(54.03)">t</text><text class="cls-111" transform="translate(25.56 11.38) rotate(68.07)">n</text><text class="cls-111" transform="translate(26.4 13.92) rotate(82.53)">e</text><text class="cls-111" transform="translate(26.56 16.58) rotate(95.65)">r</text></g></g></svg>