<svg xmlns="http://www.w3.org/2000/svg" xmlns:xlink="http://www.w3.org/1999/xlink" viewBox="0 0 3195.88 256"><defs><style>.cls-1{isolation:isolate;}.cls-2{fill:url(#radial-gradient);}.cls-3{mix-blend-mode:multiply;}.cls-4{fill:#b4b4b4;}.cls-4,.cls-5{fill-rule:evenodd;}.cls-5,.cls-6{fill:#fff;}</style><radialGradient id="radial-gradient" cx="-11.93" cy="-188.6" r="569.39" gradientUnits="userSpaceOnUse"><stop offset="0" stop-color="#85d1f5"/><stop offset="0.32" stop-color="#2e98d4"/><stop offset="0.63" stop-color="#00589b"/><stop offset="1" stop-color="#2c3179"/></radialGradient></defs><title>Logo_Jukebox_5D_admin</title><g class="cls-1"><g id="Layer_1" data-name="Layer 1"><path class="cls-2" d="M211.62-207.43q-3.68.35-7.21,0.66t-6.94.58l-6.69.5-6.47.43-6.27.36-6.09.31-5.94.25-5.81.21-5.71.16-5.62.12-5.56.08-5.53,0h-5.52l-5.53,0-5.56-.08-5.62-.12-5.71-.16-5.81-.21-5.94-.25L92-204.9l-6.27-.36-6.47-.43-6.69-.5q-3.41-.27-6.94-0.58t-7.21-.66a42,42,0,0,1-5.8-1,46.21,46.21,0,0,1-5.65-1.76,51.43,51.43,0,0,1-5.46-2.46,56.71,56.71,0,0,1-5.21-3.09,61.1,61.1,0,0,1-4.92-3.65q-2.37-2-4.56-4.14t-4.14-4.56A61.1,61.1,0,0,1,19-233a56.71,56.71,0,0,1-3.09-5.21,51.41,51.41,0,0,1-2.46-5.46,46.22,46.22,0,0,1-1.76-5.65,42,42,0,0,1-1-5.8q-0.35-3.68-.66-7.21t-0.58-6.94Q9.19-272.67,9-276t-0.43-6.47q-0.2-3.18-.36-6.27T7.86-294.8q-0.14-3-.25-5.94T7.4-306.55q-0.09-2.88-.16-5.71t-0.12-5.62q0-2.8-.08-5.56T7-329q0-2.76,0-5.52T7-340q0-2.77.08-5.56t0.12-5.62q0.07-2.83.16-5.71t0.21-5.81q0.11-2.94.25-5.94t0.31-6.09q0.17-3.09.36-6.27T9-387.51q0.23-3.29.5-6.69T10-401.14q0.31-3.54.66-7.21a42,42,0,0,1,1-5.8,46.22,46.22,0,0,1,1.76-5.65,51.41,51.41,0,0,1,2.46-5.46A56.7,56.7,0,0,1,19-430.48a61.08,61.08,0,0,1,3.65-4.92q2-2.37,4.14-4.56t4.56-4.14a61.07,61.07,0,0,1,4.92-3.65,56.73,56.73,0,0,1,5.21-3.09,51.45,51.45,0,0,1,5.46-2.46,46.25,46.25,0,0,1,5.65-1.76,42,42,0,0,1,5.8-1q3.68-.36,7.21-0.66t6.94-.58l6.69-.5,6.47-.43,6.27-.36,6.09-.31,5.94-.25,5.81-.21,5.71-.16,5.62-.12,5.56-.08,5.53,0h5.52l5.53,0,5.56,0.08,5.62,0.12,5.71,0.16,5.81,0.21,5.94,0.25,6.09,0.31,6.27,0.36,6.47,0.43,6.69,0.5q3.41,0.27,6.94.58t7.21,0.66a42,42,0,0,1,5.8,1,46.23,46.23,0,0,1,5.65,1.76,51.43,51.43,0,0,1,5.46,2.46,56.71,56.71,0,0,1,5.21,3.09,61.06,61.06,0,0,1,4.92,3.65q2.37,2,4.56,4.14t4.14,4.56a61.06,61.06,0,0,1,3.65,4.92,56.7,56.7,0,0,1,3.09,5.21,51.39,51.39,0,0,1,2.46,5.46,46.23,46.23,0,0,1,1.76,5.65,42,42,0,0,1,1,5.8q0.36,3.68.66,7.21t0.58,6.94q0.27,3.41.5,6.69t0.43,6.47q0.2,3.18.36,6.27t0.31,6.09q0.14,3,.25,5.94t0.21,5.81q0.09,2.88.16,5.71t0.12,5.62q0,2.8.08,5.56t0,5.53q0,2.76,0,5.52t0,5.53q0,2.77-.08,5.56t-0.12,5.62q-0.07,2.83-.16,5.71t-0.21,5.81q-0.11,2.94-.25,5.94t-0.31,6.09q-0.17,3.09-.36,6.27T261-276q-0.23,3.29-.5,6.69T260-262.32q-0.31,3.54-.66,7.21a42,42,0,0,1-1,5.8,46.21,46.21,0,0,1-1.76,5.65,51.42,51.42,0,0,1-2.46,5.46A56.71,56.71,0,0,1,251-233a61.12,61.12,0,0,1-3.65,4.92q-2,2.37-4.14,4.56t-4.56,4.14a61.1,61.1,0,0,1-4.92,3.65,56.71,56.71,0,0,1-5.21,3.09,51.41,51.41,0,0,1-5.46,2.46,46.21,46.21,0,0,1-5.65,1.76A42,42,0,0,1,211.62-207.43Z" transform="translate(-7 459.73)"/><g id="_Group_" data-name="&lt;Group&gt;" class="cls-3"><path class="cls-4" d="M170-374.55q5-9.18,11-18.78a226.1,226.1,0,0,1-53,15,256.35,256.35,0,0,1-42.06,3.23q4.88,6.69,9.2,13.17a244.1,244.1,0,0,0,29.39-1.86A212.55,212.55,0,0,0,170-374.55Zm5.14,92.94a16.34,16.34,0,0,0-10.27,15.17,16.28,16.28,0,0,0,5.33,12.07,16.26,16.26,0,0,0,11,4.26,16.37,16.37,0,0,0,3.69-.42,16.34,16.34,0,0,0,12.64-15.91,16.33,16.33,0,0,0-16.33-16.33A16.29,16.29,0,0,0,175.1-281.61ZM79.76-299.46a8.91,8.91,0,0,1,1.53-.45,9.26,9.26,0,0,1,1.82-.18,9.17,9.17,0,0,1,8.74,6.39c0.09,0.28.16,0.56,0.22,0.84a9.11,9.11,0,0,1,.21,1.94,9.17,9.17,0,0,1-6.44,8.75h0A16.34,16.34,0,0,0,74-266.44a16.34,16.34,0,0,0,12.64,15.91,16.38,16.38,0,0,0,3.69.42,16.27,16.27,0,0,0,11-4.25l0.05,0.05c0.26-.2,6.32-5.15,7.77-17.94,0.82-7.27,0-15.55-2.41-24.74a123.08,123.08,0,0,0-4.7-14.1,208.28,208.28,0,0,0-17-32.79q-5.84-9.36-13-19.29-5.87-8.11-12.63-16.59A9.11,9.11,0,0,1,58.59-390a9.11,9.11,0,0,1,9.28-4.44,137.34,137.34,0,0,0,15.85,1.07,237.83,237.83,0,0,0,41.34-3c14.51-2.3,36.42-7.33,58.39-18.23,13-6.44,20-12,20.27-12.22a9.09,9.09,0,0,1,12,.39,9.14,9.14,0,0,1,1.18,12q-9.55,13.37-17.56,26-9.35,14.77-16.54,28.49a275.86,275.86,0,0,0-11.85,25.48C165-319.59,161.4-306,160.21-294a34.45,34.45,0,0,1,16.32-6.74,34.94,34.94,0,0,1,4.63-.31,34.65,34.65,0,0,1,34.65,34.65,34.65,34.65,0,0,1-34.65,34.65,34.68,34.68,0,0,1-7.89-.9,34.6,34.6,0,0,1-17.55-10.23l0,0c-4.14-4.4-10.48-13.34-13-28.53-2.78-16.5-.39-36.11,7.12-58.29q3.6-10.65,8.79-22.11a234,234,0,0,1-31.89,6.18c-7.33.91-14.19,1.45-20.49,1.74a206.76,206.76,0,0,1,13.27,27.42c7,17.92,9.51,34,7.58,47.9a49.31,49.31,0,0,1-8.22,21.89l-0.11.16a34.51,34.51,0,0,1-3.13,3.84c-0.25.26-.49,0.52-0.75,0.78l-0.23.23-0.23.22a34.57,34.57,0,0,1-16.1,8.8,34.77,34.77,0,0,1-8,.92,34.65,34.65,0,0,1-34.65-34.65,34.66,34.66,0,0,1,24.09-33h0Z" transform="translate(-7 459.73)"/></g><g id="_Group_2" data-name="&lt;Group&gt;"><path class="cls-5" d="M166-376.87q4-7.21,8.45-14.67A226.83,226.83,0,0,1,122.74-379a257.89,257.89,0,0,1-40.2,1.87l-0.44,0q4.77,6.56,9,12.91a244.08,244.08,0,0,0,29.39-1.86A212.55,212.55,0,0,0,166-376.87Zm14.89,124a16.34,16.34,0,0,0,12.64-15.91,16.33,16.33,0,0,0-16.33-16.33,16.29,16.29,0,0,0-6.06,1.16,16.34,16.34,0,0,0-10.27,15.17,16.28,16.28,0,0,0,5.33,12.07,16.26,16.26,0,0,0,11,4.26A16.38,16.38,0,0,0,180.9-252.85Zm-106.83-143c-2.67-.21-4.89-0.45-6.61-0.67-2.71-.34-4.18-0.61-4.21-0.61a9.12,9.12,0,0,0-10.64,7.26,9.12,9.12,0,0,0,4,9.34q6.09,7.69,11.45,15.09,7.19,9.93,13,19.29a208.29,208.29,0,0,1,17,32.79,123.08,123.08,0,0,1,4.7,14.1c2.42,9.18,3.23,17.47,2.41,24.74-1.45,12.79-7.51,17.73-7.77,17.94l-0.05-.05a16.27,16.27,0,0,1-11,4.25,16.38,16.38,0,0,1-3.69-.42A16.34,16.34,0,0,1,70-268.76,16.34,16.34,0,0,1,81.9-284.48h0a9.17,9.17,0,0,0,6.44-8.75,9.11,9.11,0,0,0-.21-1.94c-0.06-.29-0.14-0.57-0.22-0.84a9.17,9.17,0,0,0-8.74-6.39,9.26,9.26,0,0,0-1.82.18,8.91,8.91,0,0,0-1.53.45h0a34.66,34.66,0,0,0-24.09,33,34.65,34.65,0,0,0,34.65,34.65,34.77,34.77,0,0,0,8-.92,34.57,34.57,0,0,0,16.1-8.8l0.23-.22,0.23-.23c0.26-.26.51-0.51,0.75-0.78a34.51,34.51,0,0,0,3.13-3.84l0.11-.16A49.31,49.31,0,0,0,123.1-271c1.92-13.86-.63-30-7.58-47.9a206.76,206.76,0,0,0-13.27-27.42c6.29-.29,13.16-0.83,20.49-1.74a234,234,0,0,0,31.89-6.18q-5.18,11.45-8.79,22.11c-7.5,22.18-9.9,41.79-7.12,58.29,2.56,15.19,8.9,24.12,13,28.53l0,0A34.6,34.6,0,0,0,169.32-235a34.68,34.68,0,0,0,7.89.9,34.65,34.65,0,0,0,34.65-34.65,34.65,34.65,0,0,0-34.65-34.65,34.94,34.94,0,0,0-4.63.31,34.45,34.45,0,0,0-16.32,6.74c1.19-12,4.78-25.54,10.73-40.39a275.86,275.86,0,0,1,11.85-25.48q7.18-13.7,16.54-28.49,5-7.93,10.65-16.14,1.83-2.67,3.72-5.37,1.57-2.24,3.19-4.51a9.14,9.14,0,0,0-1.18-12,9.09,9.09,0,0,0-12-.39c-0.28.22-7.3,5.78-20.27,12.22-22,10.91-43.88,15.94-58.39,18.23a237.82,237.82,0,0,1-41.34,3C77.69-395.74,75.79-395.81,74.08-395.89Z" transform="translate(-7 459.73)"/></g><path class="cls-6" d="M432.64-370.15a8.58,8.58,0,0,1,2.58-6.31,8.57,8.57,0,0,1,6.31-2.58,8.58,8.58,0,0,1,6.31,2.58,8.58,8.58,0,0,1,2.58,6.31v61.35a49.75,49.75,0,0,0,4,19.92,51.82,51.82,0,0,0,11,16.34,51.79,51.79,0,0,0,16.34,11,49.76,49.76,0,0,0,19.92,4,49.79,49.79,0,0,0,19.92-4,51.93,51.93,0,0,0,16.34-11,52,52,0,0,0,11-16.34,49.82,49.82,0,0,0,4-19.92v-61.35a8.58,8.58,0,0,1,2.58-6.31,8.58,8.58,0,0,1,6.31-2.58,8.58,8.58,0,0,1,6.31,2.58,8.58,8.58,0,0,1,2.58,6.31v61.35a67.27,67.27,0,0,1-5.45,26.95,69.83,69.83,0,0,1-14.76,21.93,69.8,69.8,0,0,1-21.93,14.76,67.24,67.24,0,0,1-26.95,5.45,67.23,67.23,0,0,1-26.95-5.45,69.7,69.7,0,0,1-21.93-14.76,69.66,69.66,0,0,1-14.76-21.93,67.23,67.23,0,0,1-5.45-26.95v-61.35Z" transform="translate(-7 459.73)"/><path class="cls-6" d="M717.11-383.09a8.54,8.54,0,0,0-5.74-3.68,8.56,8.56,0,0,0-6.65,1.49l-64.5,45.11L625.67-330,598-310.62V-414.86a8.55,8.55,0,0,0-2.57-6.31,8.56,8.56,0,0,0-6.31-2.57,8.48,8.48,0,0,0-6.28,2.57,8.59,8.59,0,0,0-2.6,6.31v166.28a8.64,8.64,0,0,0,2.6,6.31,8.61,8.61,0,0,0,6.28,2.57,8.69,8.69,0,0,0,6.31-2.57,8.61,8.61,0,0,0,2.57-6.31v-40.32l20-14,17.83-12.46,50.25,71.86a8.59,8.59,0,0,0,5.74,3.71,8.69,8.69,0,0,0,6.65-1.52,8.66,8.66,0,0,0,3.68-5.74,8.51,8.51,0,0,0-1.52-6.62l-50.28-71.86,64.5-45.11a8.62,8.62,0,0,0,3.68-5.74A8.53,8.53,0,0,0,717.11-383.09Z" transform="translate(-7 459.73)"/><path class="cls-6" d="M720.3-300.49a48.41,48.41,0,0,0,6,17.06,52,52,0,0,0,11.32,13.62,52.24,52.24,0,0,0,15.34,9,50,50,0,0,0,18.06,3.3,50.37,50.37,0,0,0,19.78-3.87,53.38,53.38,0,0,0,16.34-10.75,8.58,8.58,0,0,1,6.31-2.58,8.59,8.59,0,0,1,6.31,2.58,8.6,8.6,0,0,1,2.58,6.31,8.59,8.59,0,0,1-2.58,6.31,53.75,53.75,0,0,1-21.36,15.05Q786.52-240,771-240a69.41,69.41,0,0,1-26.8-5.16,69.16,69.16,0,0,1-21.93-14.33,66.87,66.87,0,0,1-14.91-21.79,68.68,68.68,0,0,1-5.45-27.52,67.75,67.75,0,0,1,5.3-26.8,68.23,68.23,0,0,1,14.62-21.79,71.34,71.34,0,0,1,22.07-14.91,75.58,75.58,0,0,1,27.66-6.16A62.9,62.9,0,0,1,797.55-373a74.62,74.62,0,0,1,21.65,14.62,69.93,69.93,0,0,1,15,21.5,70.23,70.23,0,0,1,6.16,26.37q0.57,4.88-2.44,7.45a9.75,9.75,0,0,1-6.45,2.58H720.3ZM771-360.4a48.94,48.94,0,0,0-17.92,3.3,54.72,54.72,0,0,0-15.2,8.89,48.55,48.55,0,0,0-11.18,13.33,53.58,53.58,0,0,0-6.16,16.63H821.78a51.78,51.78,0,0,0-6.3-16.63,50.92,50.92,0,0,0-11.33-13.33A54.86,54.86,0,0,0,789-357.1,49,49,0,0,0,771-360.4Z" transform="translate(-7 459.73)"/><path class="cls-6" d="M920.1-378.46a63.43,63.43,0,0,1,26.23,5.59,72.89,72.89,0,0,1,21.93,15.05,72.34,72.34,0,0,1,15.05,22.07,65.77,65.77,0,0,1,5.59,26.95,65.56,65.56,0,0,1-5.45,26.52,72.08,72.08,0,0,1-14.76,21.93,68.59,68.59,0,0,1-21.93,14.91A68,68,0,0,1,919.53-240a69.39,69.39,0,0,1-26.8-5.16,69.14,69.14,0,0,1-21.93-14.33,66.9,66.9,0,0,1-14.91-21.79,68.64,68.64,0,0,1-5.45-27.52V-414.87a8.58,8.58,0,0,1,2.58-6.31,8.58,8.58,0,0,1,6.31-2.58,8.58,8.58,0,0,1,6.31,2.58,8.58,8.58,0,0,1,2.58,6.31v62.5a94.25,94.25,0,0,1,22.65-17.92A62.13,62.13,0,0,1,920.1-378.46ZM868.21-308.8a49.75,49.75,0,0,0,4,19.92,51.82,51.82,0,0,0,11,16.34,51.82,51.82,0,0,0,16.34,11,49.76,49.76,0,0,0,19.92,4,50.8,50.8,0,0,0,20.07-4,51.45,51.45,0,0,0,16.48-11,51.92,51.92,0,0,0,11-16.34,49.82,49.82,0,0,0,4-19.92,50.88,50.88,0,0,0-4-20.07,51.56,51.56,0,0,0-11-16.48,51.6,51.6,0,0,0-16.48-11,50.87,50.87,0,0,0-20.07-4A49.63,49.63,0,0,0,900-356.53,49.85,49.85,0,0,0,884-345.78a55.07,55.07,0,0,0-11.18,16.34A52.56,52.56,0,0,0,868.21-308.8Z" transform="translate(-7 459.73)"/><path class="cls-6" d="M1065.82-378.46a63.42,63.42,0,0,1,26.23,5.59A72.92,72.92,0,0,1,1114-357.82a72.37,72.37,0,0,1,15,22.07,65.77,65.77,0,0,1,5.59,26.95,65.56,65.56,0,0,1-5.45,26.52,72.08,72.08,0,0,1-14.76,21.93,68.59,68.59,0,0,1-21.93,14.91,68,68,0,0,1-27.23,5.45,69.39,69.39,0,0,1-26.8-5.16,69.14,69.14,0,0,1-21.93-14.33,66.9,66.9,0,0,1-14.91-21.79,68.64,68.64,0,0,1-5.45-27.52,67.72,67.72,0,0,1,5.3-26.8,68.26,68.26,0,0,1,14.62-21.79,71.38,71.38,0,0,1,22.08-14.91A75.56,75.56,0,0,1,1065.82-378.46Zm-51.89,69.66a49.75,49.75,0,0,0,4,19.92,51.85,51.85,0,0,0,11,16.34,51.85,51.85,0,0,0,16.34,11,49.76,49.76,0,0,0,19.92,4,50.8,50.8,0,0,0,20.07-4,51.43,51.43,0,0,0,16.48-11,52,52,0,0,0,11-16.34,49.86,49.86,0,0,0,4-19.92,50.91,50.91,0,0,0-4-20.07,51.6,51.6,0,0,0-11-16.48,51.58,51.58,0,0,0-16.48-11,50.87,50.87,0,0,0-20.07-4,49.82,49.82,0,0,0-19.92,4,52,52,0,0,0-16.34,11,51.5,51.5,0,0,0-11,16.48A50.81,50.81,0,0,0,1013.93-308.8Z" transform="translate(-7 459.73)"/><path class="cls-6" d="M1253.24-242.29a9.4,9.4,0,0,1-6.45,2.58,8,8,0,0,1-6.16-2.87L1187-296.47l-53.61,53.89a8,8,0,0,1-6.16,2.87,9.39,9.39,0,0,1-6.45-2.58,8.41,8.41,0,0,1-2.58-6.16,9.4,9.4,0,0,1,2.58-6.45l53.61-54.18-53.32-54.18a10,10,0,0,1-2.72-6.45,7.92,7.92,0,0,1,2.44-6.16,10,10,0,0,1,6.45-2.72,7.93,7.93,0,0,1,6.16,2.44L1187-321.7l53.61-54.47a7.93,7.93,0,0,1,6.16-2.44,10,10,0,0,1,6.45,2.72,7.94,7.94,0,0,1,2.44,6.16,10,10,0,0,1-2.72,6.45l-53.61,54.18,53.89,54.18a9.4,9.4,0,0,1,2.58,6.45A8.41,8.41,0,0,1,1253.24-242.29Z" transform="translate(-7 459.73)"/><path class="cls-6" d="M418.89-421.18a8.58,8.58,0,0,0-6.31-2.58,8.58,8.58,0,0,0-6.31,2.58,8.58,8.58,0,0,0-2.58,6.31V-308.8a49.75,49.75,0,0,1-4,19.92,51.82,51.82,0,0,1-11,16.34,51.83,51.83,0,0,1-16.34,11,49.76,49.76,0,0,1-19.92,4,50.8,50.8,0,0,1-20.07-4,51.45,51.45,0,0,1-16.48-11,51.92,51.92,0,0,1-11-16.34,49.82,49.82,0,0,1-4-19.92,50.88,50.88,0,0,1,4-20.07,51.56,51.56,0,0,1,11-16.48,51.6,51.6,0,0,1,16.48-11,49.89,49.89,0,0,1,11.76-3.36,9.07,9.07,0,0,0,7.73-8.93h0a9.06,9.06,0,0,0-10.51-8.94,63.38,63.38,0,0,0-15.72,4.74,72.89,72.89,0,0,0-21.93,15.05,72.34,72.34,0,0,0-15.05,22.07A65.77,65.77,0,0,0,283-308.8a65.56,65.56,0,0,0,5.45,26.52,72.08,72.08,0,0,0,14.76,21.93,68.59,68.59,0,0,0,21.93,14.91A68,68,0,0,0,352.38-240a69.39,69.39,0,0,0,26.8-5.16,69.14,69.14,0,0,0,21.93-14.33A66.9,66.9,0,0,0,416-281.28a68.64,68.64,0,0,0,5.45-27.52V-414.87A8.58,8.58,0,0,0,418.89-421.18Z" transform="translate(-7 459.73)"/><path class="cls-6" d="M1375.47-243.25a47.7,47.7,0,0,1-15.12-2.22,44.55,44.55,0,0,1-11.74-5.82,43.13,43.13,0,0,1-8.67-8,53.75,53.75,0,0,1-5.92-8.88,6.86,6.86,0,0,1-.85-5.71,7.21,7.21,0,0,1,3.38-4.44,6.87,6.87,0,0,1,5.39-.74q2.86,0.74,5.18,4.34a31.66,31.66,0,0,0,11.1,12.37q6.87,4.33,17.24,4.34a31.36,31.36,0,0,0,12.48-2.54,33.73,33.73,0,0,0,10.37-6.87,31.84,31.84,0,0,0,7-10.15,31.11,31.11,0,0,0,2.54-12.58,29.58,29.58,0,0,0-2.64-12.37,34.7,34.7,0,0,0-7.08-10.26,34.33,34.33,0,0,0-10.37-7.09,30.8,30.8,0,0,0-12.69-2.64h-35.11a6.33,6.33,0,0,1-4.65-1.9,6.33,6.33,0,0,1-1.9-4.65v-43.36a6.34,6.34,0,0,1,1.9-4.65,6.33,6.33,0,0,1,4.65-1.9h62.18a7.1,7.1,0,0,1,5.18,2.22,7.1,7.1,0,0,1,2.22,5.18,7.1,7.1,0,0,1-2.22,5.18,7.1,7.1,0,0,1-5.18,2.22h-55.63v26.86h28.13a47.72,47.72,0,0,1,18.72,3.7,47.33,47.33,0,0,1,15.23,10.15,49.44,49.44,0,0,1,10.26,15,44.56,44.56,0,0,1,3.81,18.3,45.68,45.68,0,0,1-3.7,18.3A46.65,46.65,0,0,1,1408.78-257a48.83,48.83,0,0,1-15,10A45.68,45.68,0,0,1,1375.47-243.25Z" transform="translate(-7 459.73)"/><path class="cls-6" d="M1439.15-243.25a6.33,6.33,0,0,1-4.65-1.9,6.33,6.33,0,0,1-1.9-4.65V-372.48a6.34,6.34,0,0,1,1.9-4.65,6.33,6.33,0,0,1,4.65-1.9h36.38a64.44,64.44,0,0,1,26.23,5.39,68.88,68.88,0,0,1,21.47,14.7,69.22,69.22,0,0,1,14.49,21.68,66.36,66.36,0,0,1,5.29,26.33,66.36,66.36,0,0,1-5.29,26.33A67.92,67.92,0,0,1,1523.22-263a68.21,68.21,0,0,1-21.47,14.49,65.53,65.53,0,0,1-26.23,5.29h-36.38Zm90.74-67.68a54.23,54.23,0,0,0-4.23-21.26A55.4,55.4,0,0,0,1514-349.74a55.05,55.05,0,0,0-17.34-11.84,52.37,52.37,0,0,0-21.15-4.34h-29.82v109.56h29.82a52.31,52.31,0,0,0,21.15-4.34A55.8,55.8,0,0,0,1514-272.44a54.39,54.39,0,0,0,11.63-17.34A53.45,53.45,0,0,0,1529.89-310.93Z" transform="translate(-7 459.73)"/><rect class="cls-6" x="1618.15" y="141.47" width="101.19" height="17.77" rx="8.89" ry="8.89"/><path class="cls-6" d="M1962.35-252a8.27,8.27,0,0,1,0,6.73,8.77,8.77,0,0,1-4.87,4.72,7.92,7.92,0,0,1-6.73-.14,9.45,9.45,0,0,1-4.72-4.72l-11.45-26.33H1836.7l-11.17,26.33a9.48,9.48,0,0,1-4.72,4.72,7.91,7.91,0,0,1-6.73.14,8.75,8.75,0,0,1-4.87-4.72,8.23,8.23,0,0,1,0-6.73l68.41-165.16a11.89,11.89,0,0,1,3.15-4.44,7.33,7.33,0,0,1,5.15-2.15,7.65,7.65,0,0,1,5.15,2,13.2,13.2,0,0,1,3.43,4.58Zm-118.22-37.5h83.29l-41.5-101Z" transform="translate(-7 459.73)"/><path class="cls-6" d="M2030.76-378.53a62.08,62.08,0,0,1,29.2,8.16,94.23,94.23,0,0,1,22.61,17.89v-62.4a8.58,8.58,0,0,1,2.58-6.3,8.56,8.56,0,0,1,6.3-2.58,8.57,8.57,0,0,1,6.3,2.58,8.57,8.57,0,0,1,2.58,6.3V-309a68.62,68.62,0,0,1-5.44,27.48A66.83,66.83,0,0,1,2080-259.74a68.62,68.62,0,0,1-22,14.31,69.63,69.63,0,0,1-26.62,5.15,67.8,67.8,0,0,1-27.19-5.44,68.37,68.37,0,0,1-21.9-14.88,71.86,71.86,0,0,1-14.74-21.9,65.39,65.39,0,0,1-5.44-26.48,65.66,65.66,0,0,1,5.58-26.91,72.24,72.24,0,0,1,15-22,72.78,72.78,0,0,1,21.9-15A63.32,63.32,0,0,1,2030.76-378.53ZM2082.57-309a58.27,58.27,0,0,0-4.72-20.61,52.94,52.94,0,0,0-11-16.32,49.76,49.76,0,0,0-16-10.73,49.56,49.56,0,0,0-19.46-3.86,50.79,50.79,0,0,0-20,4,51.5,51.5,0,0,0-16.46,11,51.39,51.39,0,0,0-11,16.46,50.72,50.72,0,0,0-4,20,49.67,49.67,0,0,0,4,19.89,51.74,51.74,0,0,0,11,16.31,51.36,51.36,0,0,0,16.46,11,50.73,50.73,0,0,0,20,4,49.72,49.72,0,0,0,19.89-4,51.89,51.89,0,0,0,16.32-11,51.83,51.83,0,0,0,11-16.31A49.72,49.72,0,0,0,2082.57-309Z" transform="translate(-7 459.73)"/><path class="cls-6" d="M2191.91-331.88a30.14,30.14,0,0,0-9-20.89,27.79,27.79,0,0,0-20.18-8.3,28.21,28.21,0,0,0-11.31,2.29,28.07,28.07,0,0,0-9.16,6.3,31,31,0,0,0-6.15,9.3,28.11,28.11,0,0,0-2.29,11.31v83a8.56,8.56,0,0,1-2.58,6.3,8.57,8.57,0,0,1-6.3,2.58,8.57,8.57,0,0,1-6.3-2.58,8.56,8.56,0,0,1-2.58-6.3v-83a47.13,47.13,0,0,1,3.58-18.32,45.61,45.61,0,0,1,9.87-14.88,47.57,47.57,0,0,1,14.88-10,45.62,45.62,0,0,1,18.32-3.72,44.77,44.77,0,0,1,21.75,5.3,46.91,46.91,0,0,1,16,14.17,49.6,49.6,0,0,1,16.32-14.17,44.75,44.75,0,0,1,21.75-5.3,45.63,45.63,0,0,1,18.32,3.72,47.63,47.63,0,0,1,14.88,10,47.61,47.61,0,0,1,10,14.88,45.62,45.62,0,0,1,3.72,18.32v83a8.56,8.56,0,0,1-2.58,6.3,8.57,8.57,0,0,1-6.3,2.58,8.56,8.56,0,0,1-6.3-2.58,8.56,8.56,0,0,1-2.58-6.3v-83a28.25,28.25,0,0,0-2.29-11.31,29.85,29.85,0,0,0-6.3-9.3,29.82,29.82,0,0,0-9.3-6.3,28.23,28.23,0,0,0-11.31-2.29,28.22,28.22,0,0,0-11.31,2.29,28.06,28.06,0,0,0-9.16,6.3,31,31,0,0,0-6.16,9.3,28.16,28.16,0,0,0-2.29,11.31v48.66a8.56,8.56,0,0,1-2.58,6.3,8.57,8.57,0,0,1-6.3,2.58,8.57,8.57,0,0,1-6.3-2.58,8.56,8.56,0,0,1-2.58-6.3v-48.66Z" transform="translate(-7 459.73)"/><path class="cls-6" d="M2298.67-409.73a11.31,11.31,0,0,1,3.44-8.3,11.3,11.3,0,0,1,8.3-3.44,11.31,11.31,0,0,1,8.3,3.44,11.31,11.31,0,0,1,3.43,8.3,11.3,11.3,0,0,1-3.43,8.3,11.32,11.32,0,0,1-8.3,3.43,11.3,11.3,0,0,1-8.3-3.43A11.31,11.31,0,0,1,2298.67-409.73Zm2.86,39.5a8.57,8.57,0,0,1,2.58-6.3,8.57,8.57,0,0,1,6.3-2.58,8.57,8.57,0,0,1,6.3,2.58,8.57,8.57,0,0,1,2.58,6.3v121.36a8.56,8.56,0,0,1-2.58,6.3,8.57,8.57,0,0,1-6.3,2.58,8.56,8.56,0,0,1-6.3-2.58,8.56,8.56,0,0,1-2.58-6.3V-370.23Z" transform="translate(-7 459.73)"/><path class="cls-6" d="M2334.17-310.12A67.12,67.12,0,0,1,2339.6-337a69.65,69.65,0,0,1,14.74-21.9,69.74,69.74,0,0,1,21.9-14.74,67.17,67.17,0,0,1,26.91-5.44,67.2,67.2,0,0,1,26.91,5.44,69.8,69.8,0,0,1,21.9,14.74,69.83,69.83,0,0,1,14.74,21.9,67.2,67.2,0,0,1,5.44,26.91v61.25a8.56,8.56,0,0,1-2.58,6.3,8.57,8.57,0,0,1-6.3,2.58,8.56,8.56,0,0,1-6.3-2.58,8.56,8.56,0,0,1-2.58-6.3v-61.25a49.79,49.79,0,0,0-4-19.89,52,52,0,0,0-11-16.32,52,52,0,0,0-16.32-11,49.79,49.79,0,0,0-19.89-4,49.77,49.77,0,0,0-19.89,4,51.92,51.92,0,0,0-16.32,11,51.85,51.85,0,0,0-11,16.32,49.7,49.7,0,0,0-4,19.89v61.25a8.56,8.56,0,0,1-2.58,6.3A8.57,8.57,0,0,1,2343-240a8.57,8.57,0,0,1-6.3-2.58,8.56,8.56,0,0,1-2.58-6.3v-61.25Z" transform="translate(-7 459.73)"/><path class="cls-6" d="M2551.42-357.06a65.75,65.75,0,0,1,5.15-25.9,66.06,66.06,0,0,1,14.17-21.18,68,68,0,0,1,21.18-14.31,64.23,64.23,0,0,1,25.9-5.29,64.25,64.25,0,0,1,25.91,5.29,68.09,68.09,0,0,1,21.18,14.31A68.06,68.06,0,0,1,2679.22-383a64.24,64.24,0,0,1,5.29,25.9,64.23,64.23,0,0,1-5.29,25.9A68,68,0,0,1,2664.91-310a66.09,66.09,0,0,1-21.18,14.17,65.76,65.76,0,0,1-25.91,5.15,64.13,64.13,0,0,1-14.74-1.72,56.53,56.53,0,0,1-13.74-5.15,53.76,53.76,0,0,1-11.74-8.44,37.85,37.85,0,0,1-8.45-11.88v69a8.56,8.56,0,0,1-2.58,6.3,8.57,8.57,0,0,1-6.3,2.58,8.56,8.56,0,0,1-6.3-2.58,8.56,8.56,0,0,1-2.58-6.3v-108.2Zm17.74,0a50,50,0,0,0,4.29,19.46A49.8,49.8,0,0,0,2584-322.29a49.75,49.75,0,0,0,15.17,10.16,46.23,46.23,0,0,0,18.6,3.72,46.83,46.83,0,0,0,18.89-3.86,51.47,51.47,0,0,0,15.6-10.45,48.49,48.49,0,0,0,10.59-15.46,46.75,46.75,0,0,0,3.87-18.89A46.78,46.78,0,0,0,2662.9-376a50.28,50.28,0,0,0-10.59-15.6,50.26,50.26,0,0,0-15.6-10.59,46.81,46.81,0,0,0-18.89-3.86,46.77,46.77,0,0,0-18.89,3.86,48.47,48.47,0,0,0-15.45,10.59A51.45,51.45,0,0,0,2573-376,46.83,46.83,0,0,0,2569.16-357.06Z" transform="translate(-7 459.73)"/><path class="cls-6" d="M2761.8-378.53A63.33,63.33,0,0,1,2788-373a72.8,72.8,0,0,1,21.9,15,72.29,72.29,0,0,1,15,22,65.65,65.65,0,0,1,5.58,26.91v60.4a8.56,8.56,0,0,1-2.58,6.3,8.57,8.57,0,0,1-6.3,2.58,8.56,8.56,0,0,1-6.3-2.58,8.56,8.56,0,0,1-2.58-6.3V-266A89.55,89.55,0,0,1,2790-247.87a57.12,57.12,0,0,1-28.77,7.58,69.27,69.27,0,0,1-26.76-5.15,69,69,0,0,1-21.9-14.31,66.75,66.75,0,0,1-14.88-21.75,68.53,68.53,0,0,1-5.44-27.48,67.61,67.61,0,0,1,5.3-26.76,68.11,68.11,0,0,1,14.6-21.75,71.26,71.26,0,0,1,22-14.88A75.44,75.44,0,0,1,2761.8-378.53ZM2710-309a49.67,49.67,0,0,0,4,19.89,51.71,51.71,0,0,0,11,16.31,51.73,51.73,0,0,0,16.31,11,49.7,49.7,0,0,0,19.89,4,49.58,49.58,0,0,0,19.46-3.86,51.54,51.54,0,0,0,16.17-10.73A52.1,52.1,0,0,0,2808-288.51a57.06,57.06,0,0,0,4.72-20.47,50.81,50.81,0,0,0-4-20,51.52,51.52,0,0,0-11-16.46,51.52,51.52,0,0,0-16.46-11,50.82,50.82,0,0,0-20-4,49.77,49.77,0,0,0-19.89,4,51.88,51.88,0,0,0-16.31,11A51.35,51.35,0,0,0,2714-329,50.72,50.72,0,0,0,2710-309Z" transform="translate(-7 459.73)"/><path class="cls-6" d="M2844.8-310.12a67.12,67.12,0,0,1,5.44-26.91,69.65,69.65,0,0,1,14.74-21.9,69.74,69.74,0,0,1,21.9-14.74,67.17,67.17,0,0,1,26.91-5.44,67.2,67.2,0,0,1,26.91,5.44,69.8,69.8,0,0,1,21.9,14.74,69.82,69.82,0,0,1,14.74,21.9,67.2,67.2,0,0,1,5.44,26.91v61.25a8.56,8.56,0,0,1-2.58,6.3,8.57,8.57,0,0,1-6.3,2.58,8.56,8.56,0,0,1-6.3-2.58,8.56,8.56,0,0,1-2.58-6.3v-61.25a49.79,49.79,0,0,0-4-19.89,52,52,0,0,0-11-16.32,52,52,0,0,0-16.32-11,49.79,49.79,0,0,0-19.89-4,49.77,49.77,0,0,0-19.89,4,51.92,51.92,0,0,0-16.32,11,51.85,51.85,0,0,0-11,16.32,49.7,49.7,0,0,0-4,19.89v61.25a8.56,8.56,0,0,1-2.58,6.3,8.57,8.57,0,0,1-6.3,2.58,8.57,8.57,0,0,1-6.3-2.58,8.56,8.56,0,0,1-2.58-6.3v-61.25Z" transform="translate(-7 459.73)"/><path class="cls-6" d="M3014.26-300.68a48.34,48.34,0,0,0,6,17,51.9,51.9,0,0,0,11.31,13.6,52.08,52.08,0,0,0,15.31,9,49.91,49.91,0,0,0,18,3.29,50.33,50.33,0,0,0,19.75-3.86A53.35,53.35,0,0,0,3101-272.34a8.56,8.56,0,0,1,6.3-2.58,8.57,8.57,0,0,1,6.3,2.58,8.57,8.57,0,0,1,2.58,6.3,8.57,8.57,0,0,1-2.58,6.3,53.65,53.65,0,0,1-21.33,15q-11.88,4.44-27.33,4.44a69.29,69.29,0,0,1-26.76-5.15,69,69,0,0,1-21.9-14.31,66.75,66.75,0,0,1-14.88-21.75,68.53,68.53,0,0,1-5.44-27.48,67.61,67.61,0,0,1,5.29-26.76,68.08,68.08,0,0,1,14.6-21.75,71.23,71.23,0,0,1,22-14.88,75.42,75.42,0,0,1,27.62-6.15,62.8,62.8,0,0,1,25.91,5.44A74.48,74.48,0,0,1,3113-358.5,69.76,69.76,0,0,1,3128-337a70.17,70.17,0,0,1,6.15,26.33q0.57,4.87-2.43,7.44a9.73,9.73,0,0,1-6.44,2.58H3014.26Zm50.66-59.82a48.9,48.9,0,0,0-17.89,3.29,54.62,54.62,0,0,0-15.17,8.87A48.45,48.45,0,0,0,3020.7-335a53.48,53.48,0,0,0-6.16,16.6h101a51.56,51.56,0,0,0-6.3-16.6A50.85,50.85,0,0,0,3098-348.33a54.73,54.73,0,0,0-15.17-8.87A48.9,48.9,0,0,0,3064.92-360.5Z" transform="translate(-7 459.73)"/><path class="cls-6" d="M3202.88-248.87a8.56,8.56,0,0,1-2.58,6.3A8.57,8.57,0,0,1,3194-240q-13.17-.28-22-5.15a46.11,46.11,0,0,1-14.46-12,46.54,46.54,0,0,1-8-15.17,49.89,49.89,0,0,1-2.43-14.31V-414.88a8.58,8.58,0,0,1,2.58-6.3,8.56,8.56,0,0,1,6.3-2.58,8.57,8.57,0,0,1,6.3,2.58,8.57,8.57,0,0,1,2.58,6.3v128.23a35.24,35.24,0,0,0,1,6.87,28.77,28.77,0,0,0,4.15,9.45,29.32,29.32,0,0,0,8.87,8.59q5.72,3.72,15.17,4a8.57,8.57,0,0,1,6.3,2.58A8.57,8.57,0,0,1,3202.88-248.87Z" transform="translate(-7 459.73)"/></g></g></svg>